<svg width="34" height="38" viewBox="0 0 34 38" fill="none" xmlns="http://www.w3.org/2000/svg">
<path d="M31.2491 10.3681C31.2375 10.2134 31.1081 10.0938 30.9531 10.0938H25.6093V8.60938C25.6093 3.86205 21.747 0 17 0C12.2529 0 8.39059 3.86205 8.39059 8.60938V10.0938H3.04684C2.89187 10.0938 2.76243 10.2134 2.75085 10.3681L0.672726 37.6806C0.666492 37.7628 0.694695 37.8441 0.751101 37.9047C0.807211 37.9656 0.886179 38 0.968711 38H33.0312C33.1138 38 33.1927 37.9656 33.2488 37.905C33.3049 37.8444 33.3334 37.7631 33.3272 37.6809L31.2491 10.3681ZM10.7656 8.60938C10.7656 5.17186 13.5622 2.375 17 2.375C20.4378 2.375 23.2343 5.17186 23.2343 8.60938V10.0938H10.7656V8.60938ZM9.57809 18.4062C7.94082 18.4062 6.60934 17.0745 6.60934 15.4375C6.60934 14.2527 7.20309 13.1851 8.39059 12.7166V15.4375C8.39059 16.0924 8.92348 16.625 9.57809 16.625C10.2327 16.625 10.7656 16.0924 10.7656 15.4375V12.7184C11.9531 13.1869 12.5468 14.2625 12.5468 15.4375C12.5468 17.0745 11.2154 18.4062 9.57809 18.4062ZM24.4218 18.4062C22.7846 18.4062 21.4531 17.0745 21.4531 15.4375C21.4531 14.2527 22.0468 13.1851 23.2343 12.7166V15.4375C23.2343 16.0924 23.7672 16.625 24.4218 16.625C25.0765 16.625 25.6093 16.0924 25.6093 15.4375V12.7184C26.7968 13.1869 27.3906 14.2625 27.3906 15.4375C27.3906 17.0745 26.0591 18.4062 24.4218 18.4062Z" fill="black"/>
</svg>
